name Walk7.mot
datacolumns 19
datarows 12
range 1.58000000 1.63500000
endheader

                time	   L_ground_force_vx	   L_ground_force_vy	   L_ground_force_vz	   L_ground_force_px	   L_ground_force_py	   L_ground_force_pz	   R_ground_force_vx	   R_ground_force_vy	   R_ground_force_vz	   R_ground_force_px	   R_ground_force_py	   R_ground_force_pz	   L_ground_torque_x	   L_ground_torque_y	   L_ground_torque_z	   R_ground_torque_x	   R_ground_torque_y	   R_ground_torque_z	
          1.58000000	          6.08106879	        645.59596471	         36.78389761	         -0.28950320	          0.00000000	         -0.03922394	         -0.06798154	          0.68418218	          0.04200042	          0.00002115	          0.00000000	          0.00003591	          0.00000000	          0.25489907	          0.00000000	          0.00000000	         -0.01221712	          0.00000000	
          1.58500000	          6.22999885	        648.96659795	         36.88177881	         -0.28597221	          0.00000000	         -0.03968517	         -0.04128844	          0.58490830	          0.03103316	         -0.00002742	          0.00000000	         -0.00003398	          0.00000000	          0.29436308	          0.00000000	          0.00000000	         -0.01147523	          0.00000000	
          1.59000000	          6.54558979	        653.04483317	         36.87538811	         -0.28256407	          0.00000000	         -0.04011132	          0.00542825	          0.35796700	          0.01010377	         -0.00009978	          0.00000000	         -0.00013878	          0.00000000	          0.32088191	          0.00000000	          0.00000000	         -0.00890314	          0.00000000	
          1.59500000	          7.07382849	        657.88592526	         36.75899615	         -0.27930534	          0.00000000	         -0.04049909	          0.07760785	         -0.04006803	         -0.02377917	         -0.00020030	          0.00000000	         -0.00028509	          0.00000000	          0.33636081	          0.00000000	          0.00000000	         -0.00379426	          0.00000000	
          1.60000000	          7.86203891	        663.52418240	         36.53143306	         -0.27622235	          0.00000000	         -0.04084624	          0.18059204	         -0.65581427	         -0.07368291	         -0.00033235	          0.00000000	         -0.00047808	          0.00000000	          0.34260613	          0.00000000	          0.00000000	          0.00464037	          0.00000000	
          1.60500000	          8.95928130	        669.96696146	         36.19431713	         -0.27333951	          0.00000000	         -0.04115227	          0.31891142	         -1.53511615	         -0.14241461	         -0.00049728	          0.00000000	         -0.00072006	          0.00000000	          0.34089191	          0.00000000	          0.00000000	          0.01722086	          0.00000000	
          1.61000000	         10.41668327	        677.18678595	         35.75040423	         -0.27067690	          0.00000000	         -0.04141697	          0.49527312	         -2.71695873	         -0.23202971	         -0.00069313	          0.00000000	         -0.00100859	          0.00000000	          0.33213443	          0.00000000	          0.00000000	          0.03471481	          0.00000000	
          1.61500000	         12.28577740	        685.11837856	         35.20111390	         -0.26824968	          0.00000000	         -0.04164240	          0.70920690	         -4.22482277	         -0.34315790	         -0.00091307	          0.00000000	         -0.00133414	          0.00000000	          0.31713787	          0.00000000	          0.00000000	          0.05771321	          0.00000000	
          1.62000000	         14.61487428	        693.65987067	         34.54485994	         -0.26606693	          0.00000000	         -0.04183296	          0.95534577	         -6.05511608	         -0.47412793	         -0.00114342	          0.00000000	         -0.00167726	          0.00000000	          0.29605965	          0.00000000	          0.00000000	          0.08645879	          0.00000000	
          1.62500000	         17.44414297	        702.67220936	         33.77749335	         -0.26413076	          0.00000000	         -0.04199442	          1.22134876	         -8.16247248	         -0.61988667	         -0.00136161	          0.00000000	         -0.00200546	          0.00000000	          0.26803033	          0.00000000	          0.00000000	          0.12062126	          0.00000000	
          1.63000000	         20.80045180	        711.98141423	         32.89276520	         -0.26243578	          0.00000000	         -0.04213281	          1.48552184	        -10.44197924	         -0.77073044	         -0.00153393	          0.00000000	         -0.00226992	          0.00000000	          0.23112521	          0.00000000	          0.00000000	          0.15901755	          0.00000000	
          1.63500000	         24.69395857	        721.37771118	         31.88292199	         -0.26096729	          0.00000000	         -0.04225247	          1.71426141	        -12.70880658	         -0.91090046	         -0.00161347	          0.00000000	         -0.00240236	          0.00000000	          0.18250526	          0.00000000	          0.00000000	          0.19928060	          0.00000000	
